<svg xmlns="http://www.w3.org/2000/svg" width="90.331" height="90.331" viewBox="0 0 90.331 90.331">
  <g id="upload" transform="translate(2 2)">
    <path id="Path_2" data-name="Path 2" d="M69.054,14.838a21.566,21.566,0,0,0-40.137-2.164A16.22,16.22,0,0,0,14.786,25.25a16.182,16.182,0,0,0,1.4,32.3H34.173a3.6,3.6,0,1,0,0-7.194H16.187a8.993,8.993,0,1,1,0-17.986,6.317,6.317,0,0,1,1.135.083,3.6,3.6,0,0,0,4.2-2.872,3.551,3.551,0,0,0,.058-.767c0-.012,0-.027,0-.041a9,9,0,0,1,8.993-8.993l.112-.014c.055.011.112.007.169.016a3.215,3.215,0,0,0,.377.036,3.1,3.1,0,0,0,.338,0,3.455,3.455,0,0,0,.359-.038,3.268,3.268,0,0,0,.335-.067c.113-.029.223-.065.333-.1s.213-.079.314-.127.207-.106.31-.165.189-.118.28-.184.185-.146.275-.225a3.069,3.069,0,0,0,.242-.236,3.46,3.46,0,0,0,.223-.27,3.141,3.141,0,0,0,.2-.293,3.4,3.4,0,0,0,.164-.3,3.609,3.609,0,0,0,.148-.349c.019-.054.048-.1.064-.155a14.4,14.4,0,0,1,27.86,1.438c.016.079.047.153.069.23a2.69,2.69,0,0,0,.083.279,3.732,3.732,0,0,0,.163.372c.036.074.069.151.11.221a3.623,3.623,0,0,0,.273.392c.036.047.067.1.1.141a3.605,3.605,0,0,0,.466.453c.038.031.079.052.119.081a3.668,3.668,0,0,0,.424.278c.07.038.146.066.22.1a3.841,3.841,0,0,0,.4.161c.077.025.156.043.235.062a3.566,3.566,0,0,0,.444.081c.043.006.083.02.126.024A14.393,14.393,0,0,1,64.748,50.36h-1.8a3.6,3.6,0,1,0,0,7.194h1.8a21.574,21.574,0,0,0,4.306-42.716Zm0,0" fill="#fff" stroke="#5871ea" stroke-width="4"/>
    <path id="Path_3" data-name="Path 3" d="M169.988,124.323l4.651,4.649a3.6,3.6,0,0,0,5.087-5.087l-10.791-10.791a3.508,3.508,0,0,0-.768-.568c-.066-.038-.133-.072-.2-.106a3.687,3.687,0,0,0-.846-.3c-.011,0-.021-.007-.032-.009a3.563,3.563,0,0,0-.921-.047c-.077.005-.151.012-.227.021a3.567,3.567,0,0,0-.92.23.006.006,0,0,0-.005,0,.09.09,0,0,0-.016.011,3.5,3.5,0,0,0-.79.474c-.065.051-.128.1-.191.155s-.119.087-.171.141l-10.791,10.791a3.6,3.6,0,1,0,5.087,5.085l4.651-4.651v27.288a3.6,3.6,0,0,0,7.194,0Zm0,0" transform="translate(-117.83 -86.861)" fill="#fff" stroke="#5871ea" stroke-width="4"/>
    <path id="Path_4" data-name="Path 4" d="M203.6,336a3.6,3.6,0,0,0-3.6,3.6v3.6a3.6,3.6,0,1,0,7.194,0v-3.6A3.6,3.6,0,0,0,203.6,336Zm0,0" transform="translate(-155.036 -260.46)" fill="#fff" stroke="#5871ea" stroke-width="4"/>
  </g>
</svg>
